:SAMPLES-PER-SECOND 30
:FULLY-SPECIFIED
:DEGREES
214
root  2.81953 38.1605 1.58254 -125.596 -86.2377 118.685
RightUpLeg  12.95 2.79942 -6.35185
RightLeg  33.6924 10.0396 6.89984
RightFoot  -15.4777 0.268124 10.5891
RightToes  -2.32831e-009 0 -3.6325e-017
Spine  6.8622 4.79643 10.5332
Spine1  6.83391 8.42869 -12.8987
HEad  -4.53244 -2.34446 -7.8639
LeftShoulder1  -0.988624 6.16084 -31.0308
LeftArm  -9.5493 26.7923 -32.9477
LeftForeArm  23.0122 -12.2203 -4.49107
LeftHand  -0.473007 12.9895 -5.91554
RightShoulder  -0.826193 -5.89269 27.974
RightArm  7.60239 7.51574 45.9132
RightForeArm  33.3232 55.3046 13.4362
RightHand  0.0246428 7.85823 -0.15746
LeftUpLeg  -15.4737 6.02759 -1.79536
LeftLeg  8.42453 -2.18329 -2.80222
LeftFoot  5.52144 1.17177 -8.13193
LeftToes  8.91272e-011 -1.70619e-011 7.36378e-012
215
root  4.41457 37.9861 1.38642 -148.481 -86.1099 141.232
RightUpLeg  13.0303 1.69796 -5.04084
RightLeg  30.2059 9.00473 5.3923
RightFoot  -20.5562 0.383714 6.38997
RightToes  -2.32831e-009 0 -3.6325e-017
Spine  8.07199 4.32304 12.9786
Spine1  6.90769 8.31877 -12.9593
HEad  -6.04654 -0.77426 -9.66519
LeftShoulder1  -1.00819 6.20126 -31.2032
LeftArm  -10.6301 25.0857 -34.6493
LeftForeArm  24.174 -12.3569 -4.20261
LeftHand  -0.409557 11.0893 -6.76693
RightShoulder  -0.7313 -5.66056 27.2496
RightArm  6.02898 11.6502 46.3555
RightForeArm  30.1965 51.9818 11.9585
RightHand  -0.024917 8.09341 -0.592041
LeftUpLeg  -15.6426 5.79031 0.310983
LeftLeg  5.16312 0.20589 -2.74498
LeftFoot  5.048 1.64674 -11.6497
LeftToes  8.91272e-011 -1.70619e-011 7.36378e-012
216
root  6.10132 37.8541 1.16392 -177.062 -85.8292 169.161
RightUpLeg  12.4386 1.54126 -2.59261
RightLeg  27.8072 8.2639 4.47769
RightFoot  -23.0841 0.15998 3.04447
RightToes  -2.32831e-009 0 -3.6325e-017
Spine  9.47535 3.66811 15.2035
Spine1  7.56105 7.81701 -11.9414
HEad  -8.0724 1.20384 -12.0055
LeftShoulder1  -0.959332 6.05455 -31.4181
LeftArm  -10.8573 22.3102 -36.3147
LeftForeArm  25.6677 -11.7276 -4.39413
LeftHand  -0.343525 10.4048 -6.36954
RightShoulder  -0.674327 -5.53812 26.4709
RightArm  4.67747 16.2613 46.6513
RightForeArm  26.3441 47.5297 10.3352
RightHand  -0.0762887 8.65235 -1.01859
LeftUpLeg  -15.3945 6.58416 2.86438
LeftLeg  1.88675 1.78425 -2.46045
LeftFoot  2.97813 1.81868 -14.5348
LeftToes  8.91272e-011 -1.70619e-011 7.36378e-012
217
root  7.74234 37.7921 0.92245 163.612 -85.7138 -171.66
RightUpLeg  10.5787 1.34577 -0.2207
RightLeg  26.7514 7.09926 3.64852
RightFoot  -23.9751 -0.1752 -0.134904
RightToes  -2.32831e-009 0 -3.6325e-017
Spine  10.1449 2.72489 16.3467
Spine1  7.92568 6.73418 -10.6838
HEad  -9.47219 3.32385 -13.5358
LeftShoulder1  -0.837774 5.7667 -30.8664
LeftArm  -11.1766 19.456 -38.2463
LeftForeArm  27.2442 -10.6082 -4.63359
LeftHand  -0.329602 11.4713 -4.85363
RightShoulder  -0.709196 -5.63977 26.5428
RightArm  5.0416 21.3396 46.4836
RightForeArm  20.3591 40.7271 8.33291
RightHand  -0.139747 10.1021 -1.44983
LeftUpLeg  -15.2923 7.11053 4.55299
LeftLeg  -1.8575 2.82221 -2.02109
LeftFoot  -0.39358 1.5074 -15.6909
LeftToes  8.91272e-011 -1.70619e-011 7.36378e-012
218
root  9.21698 37.7891 0.683976 148.458 -86.0967 -156.543
RightUpLeg  8.37002 0.277972 1.50036
RightLeg  26.538 5.8222 2.92603
RightFoot  -23.6893 -0.423009 -2.43991
RightToes  -2.32831e-009 0 -3.6325e-017
Spine  9.95386 1.88308 15.2078
Spine1  8.23017 4.89334 -7.27167
HEad  -9.84668 5.78967 -14.0769
LeftShoulder1  -0.790669 5.6054 -31.4496
LeftArm  -11.3317 16.0323 -39.1488
LeftForeArm  28.9529 -8.58955 -4.7674
LeftHand  -0.302069 11.4207 -4.41073
RightShoulder  -0.676938 -5.55758 26.2617
RightArm  6.64773 25.4241 46.5944
RightForeArm  14.1947 32.4622 6.3465
RightHand  -0.22312 10.5627 -2.03389
LeftUpLeg  -15.196 7.03241 5.64902
LeftLeg  -4.68856 3.24514 -1.50464
LeftFoot  -3.14676 1.21705 -16.6196
LeftToes  8.91272e-011 -1.70619e-011 7.36378e-012
